HIERARCHY
ROOT Hips
{
  OFFSET 40.9192 92.6879 18.85
  CHANNELS 6 Xposition Yposition Zposition Zrotation Xrotation Yrotation
  JOINT LeftUpLeg
  {
    OFFSET 8.64259 1.95398 -2.38835
    CHANNELS 3 Zrotation Xrotation Yrotation
    JOINT LeftLeg
    {
      OFFSET 43.7702 0 0
      CHANNELS 3 Zrotation Xrotation Yrotation
      JOINT LeftFoot
      {
        OFFSET 40.6238 0 0
        CHANNELS 3 Zrotation Xrotation Yrotation
        JOINT LeftToeBase
        {
          OFFSET 12.7242 0 0
          CHANNELS 3 Zrotation Xrotation Yrotation
          End Site
          {
            OFFSET 0 0 0
          }
        }
      }
    }
  }
  JOINT RightUpLeg
  {
    OFFSET -8.2249 1.95398 -2.59336
    CHANNELS 3 Zrotation Xrotation Yrotation
    JOINT RightLeg
    {
      OFFSET 43.5653 0 0
      CHANNELS 3 Zrotation Xrotation Yrotation
      JOINT RightFoot
      {
        OFFSET 40.6238 0 0
        CHANNELS 3 Zrotation Xrotation Yrotation
        JOINT RightToeBase
        {
          OFFSET 12.7242 0 0
          CHANNELS 3 Zrotation Xrotation Yrotation
          End Site
          {
            OFFSET 0 0 0
          }
        }
      }
    }
  }
  JOINT Spine
  {
    OFFSET 0.165834 0.87714 6.61349
    CHANNELS 3 Zrotation Xrotation Yrotation
    JOINT Spine1
    {
      OFFSET 7.38963 1.71661e-005 0
      CHANNELS 3 Zrotation Xrotation Yrotation
      JOINT Spine2
      {
        OFFSET 11.9445 1.14441e-005 0
        CHANNELS 3 Zrotation Xrotation Yrotation
        JOINT Spine3
        {
          OFFSET 14.7254 4.19617e-005 0
          CHANNELS 3 Zrotation Xrotation Yrotation
          JOINT Spine4
          {
            OFFSET 10.9679 0 0
            CHANNELS 3 Zrotation Xrotation Yrotation
            JOINT RightShoulder
            {
              OFFSET 2.46616 -1.6653 3.69651
              CHANNELS 3 Zrotation Xrotation Yrotation
              JOINT RightArm
              {
                OFFSET 13.0012 0 0
                CHANNELS 3 Zrotation Xrotation Yrotation
                JOINT RightForeArm
                {
                  OFFSET 28.7848 1.52588e-005 0
                  CHANNELS 3 Zrotation Xrotation Yrotation
                  JOINT RightHand
                  {
                    OFFSET 26.5688 1.52588e-005 0
                    CHANNELS 3 Zrotation Xrotation Yrotation
                    End Site
                    {
                      OFFSET 0 0 0
                    }
                  }
                }
              }
            }
            JOINT LeftShoulder
            {
              OFFSET 2.38034 -1.29275 -3.7523
              CHANNELS 3 Zrotation Xrotation Yrotation
              JOINT LeftArm
              {
                OFFSET 16.3182 6.10351e-005 0
                CHANNELS 3 Zrotation Xrotation Yrotation
                JOINT LeftForeArm
                {
                  OFFSET 27.0901 0 0
                  CHANNELS 3 Zrotation Xrotation Yrotation
                  JOINT LeftHand
                  {
                    OFFSET 24.5451 1.52588e-005 0
                    CHANNELS 3 Zrotation Xrotation Yrotation
                    End Site
                    {
                      OFFSET 0 0 0
                    }
                  }
                }
              }
            }
            JOINT Neck
            {
              OFFSET 5.0226 -0.0266342 0
              CHANNELS 3 Zrotation Xrotation Yrotation
              JOINT Head
              {
                OFFSET 6.69363 2.86102e-005 0
                CHANNELS 3 Zrotation Xrotation Yrotation
                End Site
                {
                  OFFSET 0 0 0
                }
              }
            }
          }
        }
      }
    }
  }
}
MOTION
Frames:	12
Frame Time:	0.0416667
36.4763 97.5303 -245.981 -94.3537 -83.6924 -93.9606 -171.118 4.09893 89.4567 -15.4736 12.7054 -3.6206 65.9077 6.7084 7.76021 30.0264 0.976493 0.0941645 174.918 3.17549 90.9394 -16.2186 -11.9546 -1.31576 68.8812 -4.35726 -2.33345 29.4253 0.325766 -4.99642 0.0678697 7.28637 -89.8963 12.3249 0.184061 0.185836 0.653949 0.192064 0.177547 -21.8812 0.119697 0.232559 -1.86852 0.119699 0.232559 92.9057 -46.4832 -97.012 34.4233 -5.3854 5.75053 -14.2863 -25.0287 -46.9378 -8.45649 -1.48966 10.4938 -96.0987 -49.4953 69.5326 -25.3941 11.7463 2.38439 4.3532 11.2159 -31.804 9.48861 0.847923 4.64557 13.3438 2.46531 -0.0845966 -5.79077 2.41222 2.46771 
36.5313 97.5383 -245.911 -94.2524 -83.6115 -93.7945 -171.171 4.06162 89.4813 -15.5962 12.0789 -3.5171 66.4009 6.8503 6.76452 29.6428 0.596818 0.948002 174.911 3.089 90.9371 -16.1135 -11.7879 -1.30529 68.8576 -4.35606 -2.33481 29.7237 0.254204 -3.68763 0.111105 7.28628 -89.89 12.3067 0.27304 0.188781 0.635821 0.28109 0.176576 -21.8994 0.203678 0.262106 -1.88672 0.203683 0.262116 92.9867 -46.5829 -96.8626 34.4423 -5.34548 5.74338 -14.4545 -25.2027 -47.0691 -8.08315 -1.50036 11.0902 -96.5883 -49.2658 68.7369 -25.2944 11.716 2.56941 4.32471 11.2184 -31.7717 9.85399 0.907318 4.92391 13.295 2.41126 -0.143055 -5.69658 2.3752 2.4032 
36.5611 97.4961 -245.778 -93.9229 -83.231 -93.254 -171.041 3.9416 89.6446 -15.5226 12.049 -3.55909 66.4495 6.92595 7.36752 29.8904 0.848402 0.336663 175.022 2.80616 91.0705 -15.6031 -12.0747 -1.34835 68.4183 -4.2251 -2.28665 30.5824 0.254318 -3.39033 0.153364 7.28813 -89.8933 12.2969 0.355419 0.172861 0.626006 0.362681 0.157042 -21.9093 0.287027 0.271682 -1.89669 0.28704 0.271692 92.8938 -46.7781 -96.9742 34.0929 -5.56454 5.48 -13.792 -25.5686 -46.6205 -7.90117 -1.47763 11.0526 -95.8712 -48.9813 69.7078 -25.4833 11.9822 2.26799 4.48857 11.6062 -32.0269 10.0323 1.01625 5.79076 13.3662 2.47787 -0.491285 -5.58839 2.52028 2.67411 
36.6133 97.4899 -245.738 -91.8097 -83.9764 -91.2932 -171.121 4.01093 89.5148 -15.1168 12.5833 -3.58347 66.5457 6.96245 7.00534 29.5561 0.4897 1.35835 174.758 2.76671 90.8661 -15.2599 -11.9512 -1.17201 68.9332 -4.41732 -2.3691 29.6321 0.258438 -3.77558 0.0923644 7.2668 -89.8944 12.3401 0.233706 0.184326 0.669132 0.241585 0.173851 -21.866 0.167504 0.246035 -1.85337 0.167502 0.246039 92.9519 -46.7989 -96.8771 33.9307 -5.4412 5.76915 -14.6703 -25.6174 -47.4382 -6.9984 -1.40759 11.4475 -96.1559 -49.1836 69.3498 -25.3083 11.9258 2.33225 4.62161 11.7465 -32.2208 10.2484 1.0669 6.06723 13.3174 2.64806 -0.423951 -5.58322 2.66994 2.93548 
36.6655 97.4497 -245.63 -91.0091 -83.9977 -90.4746 -171.23 3.90894 89.3959 -14.9372 12.6246 -3.50109 66.6579 7.31714 7.59343 29.4485 0.469889 0.632715 174.618 2.75138 90.7673 -15.2073 -12.1241 -1.07502 69.2249 -4.51319 -2.4069 29.1454 0.29458 -4.51511 0.103363 7.27651 -89.8956 12.3206 0.254994 0.179613 0.649701 0.262655 0.168211 -21.8855 0.189222 0.247945 -1.87283 0.189225 0.247943 92.8402 -46.7214 -97.0709 33.9008 -5.45943 5.69731 -14.3681 -25.4229 -47.0206 -6.38277 -1.3138 11.1635 -96.0223 -49.16 69.5402 -25.3152 11.9194 2.08814 4.77147 11.9676 -32.2669 10.0249 1.07964 6.37271 13.3678 2.67176 -0.621138 -5.72261 2.73495 2.90325 
36.7108 97.4648 -245.483 -88.949 -84.1372 -88.4089 -171.173 3.90243 89.4315 -14.7176 12.273 -3.55474 66.8096 7.15443 6.89355 29.524 0.529726 0.638857 174.668 2.63848 90.7865 -14.7194 -12.0648 -1.11632 68.9421 -4.41427 -2.36649 29.936 0.280725 -4.10962 0.12291 7.25802 -89.9002 12.3577 0.291691 0.166206 0.686721 0.298717 0.153207 -21.8485 0.228244 0.246191 -1.83587 0.228245 0.246186 92.9835 -46.6286 -96.8591 33.9563 -5.60178 5.65286 -13.7209 -25.641 -46.4018 -7.62381 -1.44235 11.0217 -96.2949 -49.1171 69.1225 -25.3071 11.9063 2.30907 4.61836 11.6354 -32.2207 9.79922 0.955611 5.41909 13.427 2.60789 -0.647769 -6.15389 2.66806 2.92401 
36.7646 97.4414 -245.314 -87.1104 -84.2509 -86.6519 -171.308 3.91617 89.2716 -14.5736 12.7046 -3.52413 66.7364 7.29378 7.43849 29.5052 0.519051 0.594052 174.566 2.79862 90.6616 -14.8999 -11.96 -1.0709 69.1609 -4.47304 -2.3875 29.9221 0.280688 -4.10836 0.121904 7.23698 -89.8889 12.3997 0.295055 0.188173 0.728746 0.303054 0.175 -21.8065 0.224864 0.268152 -1.79382 0.224863 0.268153 92.8965 -46.9585 -96.9352 33.6369 -5.37903 6.21848 -14.3218 -25.7318 -47.0479 -7.253 -1.39222 10.861 -96.3132 -49.2257 69.1305 -25.3561 11.9638 2.42806 4.74467 11.9016 -32.2299 9.73137 0.980895 5.70931 13.5537 2.59935 -0.484767 -6.3071 2.6231 2.54428 
36.9098 97.3632 -245.172 -84.7834 -84.5999 -84.2889 -171.722 4.26307 88.983 -15.178 12.2155 -3.12672 67.1639 7.85337 7.48036 29.5186 0.542721 0.449065 174.469 2.86908 90.5866 -14.9335 -11.6333 -0.995614 69.5772 -4.59625 -2.4317 28.9975 0.269708 -4.15553 0.104253 7.24206 -89.8919 12.3895 0.258537 0.186333 0.718574 0.266487 0.174768 -21.8166 0.190585 0.255419 -1.80395 0.19058 0.255415 93.0383 -46.7789 -96.7421 33.6744 -5.54931 5.65761 -13.1569 -25.6021 -45.9485 -7.11738 -1.38439 11.06 -96.4346 -49.0657 68.8996 -25.5827 11.6829 2.61006 4.96729 11.8975 -32.3694 9.33866 0.944575 5.69598 13.7373 2.4537 -0.325851 -6.30168 2.44794 2.24312 
36.9664 97.3828 -245.03 -84.9912 -84.9494 -84.5722 -171.418 3.83133 89.1179 -14.5838 12.6791 -3.46462 67.3701 7.72067 7.11639 29.2692 0.325261 0.646183 174.202 2.31688 90.4084 -14.0694 -10.5344 -0.775109 69.4053 -4.57401 -2.43208 29.7004 0.160769 -2.03456 0.10655 7.25369 -89.9038 12.3663 0.257461 0.162838 0.695354 0.264387 0.151349 -21.8399 0.19662 0.232701 -1.8272 0.196622 0.232694 93.1746 -46.6008 -96.5568 33.9267 -5.1814 6.15427 -14.0265 -25.5229 -46.7266 -6.1679 -1.28067 11.0605 -97.0968 -49.5205 68.0711 -25.0535 11.9054 2.7337 4.33798 11.3413 -31.8811 9.67161 0.883131 4.83993 13.2559 2.34133 -0.567634 -5.7411 2.39831 2.95334 
37.1947 97.2429 -244.864 -84.6232 -85.5494 -84.1424 -171.692 4.1485 88.8986 -15.6422 12.2856 -3.17022 68.1873 8.63894 6.63755 28.5885 -0.191482 0.380565 174.13 2.57549 90.3406 -14.9989 -10.1562 -0.735032 70.0491 -4.73566 -2.48141 29.9646 0.185677 -2.33806 0.0866078 7.27266 -89.9069 12.3284 0.216291 0.161337 0.657416 0.223189 0.151655 -21.8777 0.157805 0.218878 -1.86509 0.157807 0.218889 93.294 -46.8965 -96.31 33.4498 -5.52675 5.98264 -13.5149 -25.4297 -46.3467 -6.70677 -1.30236 10.5259 -96.7761 -49.2618 68.459 -25.5011 12.0195 2.41492 4.14389 11.2366 -31.6213 9.98072 0.873315 4.51919 13.5891 2.23892 -0.682318 -6.0818 2.31916 2.70619 
37.4384 97.2038 -244.496 -82.7365 -85.2677 -82.2057 -171.607 4.13532 88.7983 -15.6646 12.754 -3.32507 67.9902 8.66935 7.64168 28.4585 -0.143672 -1.06678 174.421 2.70119 90.3815 -15.3252 -10.508 -1.10735 70.1323 -4.83407 -2.53409 30.5023 0.240716 -3.13661 0.131885 7.28002 -89.9114 12.3136 0.304148 0.142528 0.642711 0.310132 0.128993 -21.8926 0.247251 0.227352 -1.87995 0.247253 0.227343 93.2111 -46.8805 -96.4465 33.2556 -5.42549 5.92775 -13.4244 -25.3876 -46.0444 -6.28645 -1.27114 10.7567 -96.5217 -49.1944 68.8122 -25.7794 12.0352 2.34767 4.48891 11.6172 -31.8237 9.34895 0.818459 4.45244 13.5909 2.10573 -0.625843 -6.30243 2.16984 2.80294 
37.6902 97.201 -244.2 -80.9116 -85.8453 -80.2802 -171.63 4.7503 88.7466 -16.8136 13.1439 -3.29743 67.802 8.46526 7.36674 29.4302 0.517565 -0.0293922 174.728 2.98049 90.5429 -16.2066 -9.99557 -1.37149 70.0154 -4.7992 -2.5206 30.9382 0.320485 -4.66868 0.0900231 7.29237 -89.928 12.289 0.213133 0.119747 0.618099 0.218187 0.110235 -21.9171 0.167279 0.178256 -1.90445 0.167282 0.178252 93.3408 -46.5118 -96.3061 33.6501 -5.27514 5.98404 -13.5555 -24.9928 -46.371 -5.83056 -1.23608 11.0741 -96.453 -49.2379 68.9279 -25.8773 11.9919 2.41735 4.59856 11.5353 -32.013 8.58906 0.716597 4.03281 13.4506 2.06224 -0.364382 -6.04377 2.07542 2.55553 
